<svg xmlns="http://www.w3.org/2000/svg" xmlns:xlink="http://www.w3.org/1999/xlink" width="421" zoomAndPan="magnify" viewBox="0 0 315.75 341.999987" height="456" preserveAspectRatio="xMidYMid meet" version="1.0"><defs><clipPath id="9378d4a547"><path d="M 77.796875 78.5625 L 237.8125 78.5625 L 237.8125 263.28125 L 77.796875 263.28125 Z M 77.796875 78.5625 " clip-rule="nonzero"/></clipPath><clipPath id="85f641fe1d"><path d="M 75.238281 75.132812 L 240.625 75.132812 L 240.625 266.292969 L 75.238281 266.292969 Z M 75.238281 75.132812 " clip-rule="nonzero"/></clipPath><clipPath id="ee0a4d3346"><path d="M 120.503906 128.296875 L 194.605469 128.296875 L 194.605469 213.136719 L 120.503906 213.136719 Z M 120.503906 128.296875 " clip-rule="nonzero"/></clipPath><clipPath id="1ea5ff63c1"><path d="M 170.136719 169.472656 L 199.132812 169.472656 L 199.132812 202.765625 L 170.136719 202.765625 Z M 170.136719 169.472656 " clip-rule="nonzero"/></clipPath><clipPath id="88669802a9"><path d="M 182 174 L 200 174 L 200 202.933594 L 182 202.933594 Z M 182 174 " clip-rule="nonzero"/></clipPath><clipPath id="06a9c59962"><path d="M 168.878906 168.566406 L 200 168.566406 L 200 186 L 168.878906 186 Z M 168.878906 168.566406 " clip-rule="nonzero"/></clipPath><clipPath id="2e27b2ecb9"><path d="M 168.878906 174 L 187 174 L 187 202.933594 L 168.878906 202.933594 Z M 168.878906 174 " clip-rule="nonzero"/></clipPath><clipPath id="edf375d6ba"><path d="M 117.007812 169.472656 L 146.003906 169.472656 L 146.003906 202.765625 L 117.007812 202.765625 Z M 117.007812 169.472656 " clip-rule="nonzero"/></clipPath><clipPath id="b2aa4c409f"><path d="M 129 174 L 146.894531 174 L 146.894531 202.933594 L 129 202.933594 Z M 129 174 " clip-rule="nonzero"/></clipPath><clipPath id="895fc97c19"><path d="M 115.753906 168.566406 L 146.894531 168.566406 L 146.894531 186 L 115.753906 186 Z M 115.753906 168.566406 " clip-rule="nonzero"/></clipPath><clipPath id="0f5af39d49"><path d="M 115.753906 174 L 133 174 L 133 202.933594 L 115.753906 202.933594 Z M 115.753906 174 " clip-rule="nonzero"/></clipPath><clipPath id="26f3a61ff3"><path d="M 143.523438 124.117188 L 172.519531 124.117188 L 172.519531 157.40625 L 143.523438 157.40625 Z M 143.523438 124.117188 " clip-rule="nonzero"/></clipPath><clipPath id="3c9c82df76"><path d="M 156 129 L 173.410156 129 L 173.410156 157.574219 L 156 157.574219 Z M 156 129 " clip-rule="nonzero"/></clipPath><clipPath id="501e644a46"><path d="M 142.265625 123.210938 L 173.410156 123.210938 L 173.410156 141 L 142.265625 141 Z M 142.265625 123.210938 " clip-rule="nonzero"/></clipPath><clipPath id="400d74f82e"><path d="M 142.265625 129 L 160 129 L 160 157.574219 L 142.265625 157.574219 Z M 142.265625 129 " clip-rule="nonzero"/></clipPath></defs><g clip-path="url(#9378d4a547)"><path fill="#0b90ab" d="M 237.8125 217.070312 L 157.804688 263.21875 L 77.796875 217.070312 L 77.796875 124.773438 L 157.804688 78.625 L 237.8125 124.773438 Z M 237.8125 217.070312 " fill-opacity="1" fill-rule="nonzero"/></g><g clip-path="url(#85f641fe1d)"><path fill="#fec145" d="M 234.898438 215.144531 L 157.933594 259.578125 L 80.96875 215.144531 L 80.96875 126.277344 L 157.933594 81.804688 L 234.898438 126.277344 L 234.898438 215.144531 M 240.625 218.46875 L 240.625 122.953125 L 157.933594 75.195312 L 75.238281 122.953125 L 75.238281 218.46875 L 157.933594 266.226562 Z M 240.625 218.46875 " fill-opacity="1" fill-rule="nonzero"/></g><g clip-path="url(#ee0a4d3346)"><path fill="#fec145" d="M 192.039062 190.4375 L 157.554688 210.160156 L 123.070312 190.4375 L 123.070312 150.996094 L 157.554688 131.257812 L 192.039062 150.996094 L 192.039062 190.4375 M 194.605469 191.914062 L 194.605469 149.519531 L 157.554688 128.324219 L 120.503906 149.519531 L 120.503906 191.914062 L 157.554688 213.109375 Z M 194.605469 191.914062 " fill-opacity="1" fill-rule="nonzero"/></g><g clip-path="url(#1ea5ff63c1)"><path fill="#0b90ab" d="M 199.132812 194.433594 L 184.636719 202.753906 L 170.136719 194.433594 L 170.136719 177.800781 L 184.636719 169.484375 L 199.132812 177.800781 Z M 199.132812 194.433594 " fill-opacity="1" fill-rule="nonzero"/></g><g clip-path="url(#88669802a9)"><path fill="#fec145" d="M 199.1875 175 C 199.660156 175.28125 199.953125 175.789062 199.953125 176.339844 L 199.953125 194.113281 C 199.953125 194.699219 199.625 195.234375 199.105469 195.5 L 185.15625 202.609375 C 184.675781 202.851562 184.101562 202.828125 183.640625 202.546875 C 183.183594 202.265625 182.902344 201.761719 182.902344 201.222656 L 182.902344 184.117188 C 182.902344 183.550781 183.207031 183.03125 183.699219 182.757812 L 197.648438 174.980469 C 198.128906 174.714844 198.714844 174.722656 199.1875 175 Z M 186.003906 185.03125 L 186.003906 198.6875 L 196.851562 193.160156 L 196.851562 178.984375 Z M 186.003906 185.03125 " fill-opacity="1" fill-rule="evenodd"/></g><g clip-path="url(#06a9c59962)"><path fill="#fec145" d="M 183.824219 168.699219 C 184.222656 168.519531 184.679688 168.519531 185.082031 168.699219 L 199.03125 174.921875 C 199.570312 175.160156 199.925781 175.683594 199.949219 176.273438 C 199.976562 176.859375 199.667969 177.414062 199.15625 177.699219 L 185.207031 185.476562 C 184.738281 185.738281 184.167969 185.738281 183.699219 185.476562 L 169.75 177.699219 C 169.238281 177.414062 168.929688 176.859375 168.953125 176.273438 C 168.980469 175.683594 169.335938 175.160156 169.875 174.921875 Z M 173.972656 176.496094 L 184.453125 182.335938 L 194.933594 176.496094 L 184.453125 171.824219 Z M 173.972656 176.496094 " fill-opacity="1" fill-rule="evenodd"/></g><g clip-path="url(#2e27b2ecb9)"><path fill="#fec145" d="M 169.71875 175 C 169.242188 175.28125 168.953125 175.789062 168.953125 176.339844 L 168.953125 194.113281 C 168.953125 194.699219 169.28125 195.234375 169.800781 195.5 L 183.75 202.609375 C 184.230469 202.851562 184.804688 202.828125 185.261719 202.546875 C 185.722656 202.265625 186.003906 201.761719 186.003906 201.222656 L 186.003906 184.117188 C 186.003906 183.550781 185.699219 183.03125 185.207031 182.757812 L 171.257812 174.980469 C 170.777344 174.714844 170.191406 174.722656 169.71875 175 Z M 182.902344 185.03125 L 182.902344 198.6875 L 172.054688 193.160156 L 172.054688 178.984375 Z M 182.902344 185.03125 " fill-opacity="1" fill-rule="evenodd"/></g><g clip-path="url(#edf375d6ba)"><path fill="#0b90ab" d="M 146.003906 194.433594 L 131.507812 202.753906 L 117.007812 194.433594 L 117.007812 177.800781 L 131.507812 169.484375 L 146.003906 177.800781 Z M 146.003906 194.433594 " fill-opacity="1" fill-rule="nonzero"/></g><g clip-path="url(#b2aa4c409f)"><path fill="#fec145" d="M 146.058594 175 C 146.53125 175.28125 146.824219 175.789062 146.824219 176.339844 L 146.824219 194.113281 C 146.824219 194.699219 146.496094 195.234375 145.976562 195.5 L 132.027344 202.609375 C 131.546875 202.851562 130.972656 202.828125 130.511719 202.546875 C 130.054688 202.265625 129.773438 201.761719 129.773438 201.222656 L 129.773438 184.117188 C 129.773438 183.550781 130.078125 183.03125 130.570312 182.757812 L 144.519531 174.980469 C 145 174.714844 145.585938 174.722656 146.058594 175 Z M 132.875 185.03125 L 132.875 198.6875 L 143.722656 193.160156 L 143.722656 178.984375 Z M 132.875 185.03125 " fill-opacity="1" fill-rule="evenodd"/></g><g clip-path="url(#895fc97c19)"><path fill="#fec145" d="M 130.695312 168.699219 C 131.09375 168.519531 131.554688 168.519531 131.953125 168.699219 L 145.902344 174.921875 C 146.441406 175.160156 146.796875 175.683594 146.820312 176.273438 C 146.847656 176.859375 146.539062 177.414062 146.027344 177.699219 L 132.078125 185.476562 C 131.609375 185.738281 131.039062 185.738281 130.570312 185.476562 L 116.621094 177.699219 C 116.109375 177.414062 115.800781 176.859375 115.828125 176.273438 C 115.851562 175.683594 116.207031 175.160156 116.746094 174.921875 Z M 120.84375 176.496094 L 131.324219 182.335938 L 141.804688 176.496094 L 131.324219 171.824219 Z M 120.84375 176.496094 " fill-opacity="1" fill-rule="evenodd"/></g><g clip-path="url(#0f5af39d49)"><path fill="#fec145" d="M 116.589844 175 C 116.117188 175.28125 115.824219 175.789062 115.824219 176.339844 L 115.824219 194.113281 C 115.824219 194.699219 116.152344 195.234375 116.671875 195.5 L 130.621094 202.609375 C 131.101562 202.851562 131.675781 202.828125 132.132812 202.546875 C 132.59375 202.265625 132.875 201.761719 132.875 201.222656 L 132.875 184.117188 C 132.875 183.550781 132.570312 183.03125 132.078125 182.757812 L 118.128906 174.980469 C 117.648438 174.714844 117.0625 174.722656 116.589844 175 Z M 129.773438 185.03125 L 129.773438 198.6875 L 118.925781 193.160156 L 118.925781 178.984375 Z M 129.773438 185.03125 " fill-opacity="1" fill-rule="evenodd"/></g><g clip-path="url(#26f3a61ff3)"><path fill="#0b90ab" d="M 172.519531 149.078125 L 158.019531 157.394531 L 143.523438 149.078125 L 143.523438 132.445312 L 158.019531 124.128906 L 172.519531 132.445312 Z M 172.519531 149.078125 " fill-opacity="1" fill-rule="nonzero"/></g><g clip-path="url(#3c9c82df76)"><path fill="#fec145" d="M 172.574219 129.644531 C 173.046875 129.921875 173.335938 130.433594 173.335938 130.984375 L 173.335938 148.757812 C 173.335938 149.339844 173.011719 149.878906 172.488281 150.144531 L 158.539062 157.25 C 158.058594 157.496094 157.488281 157.472656 157.027344 157.191406 C 156.566406 156.90625 156.289062 156.40625 156.289062 155.863281 L 156.289062 138.757812 C 156.289062 138.195312 156.59375 137.675781 157.085938 137.398438 L 171.035156 129.625 C 171.515625 129.359375 172.101562 129.363281 172.574219 129.644531 Z M 159.386719 139.675781 L 159.386719 153.332031 L 170.238281 147.800781 L 170.238281 133.628906 Z M 159.386719 139.675781 " fill-opacity="1" fill-rule="evenodd"/></g><g clip-path="url(#501e644a46)"><path fill="#fec145" d="M 157.207031 123.34375 C 157.609375 123.164062 158.066406 123.164062 158.46875 123.34375 L 172.417969 129.5625 C 172.953125 129.804688 173.308594 130.328125 173.335938 130.914062 C 173.363281 131.503906 173.054688 132.058594 172.539062 132.34375 L 158.589844 140.117188 C 158.121094 140.378906 157.554688 140.378906 157.085938 140.117188 L 143.136719 132.34375 C 142.621094 132.058594 142.3125 131.503906 142.339844 130.914062 C 142.367188 130.328125 142.722656 129.804688 143.257812 129.5625 Z M 147.359375 131.140625 L 157.839844 136.980469 L 168.320312 131.140625 L 157.839844 126.464844 Z M 147.359375 131.140625 " fill-opacity="1" fill-rule="evenodd"/></g><g clip-path="url(#400d74f82e)"><path fill="#fec145" d="M 143.101562 129.644531 C 142.628906 129.921875 142.339844 130.433594 142.339844 130.984375 L 142.339844 148.757812 C 142.339844 149.339844 142.667969 149.878906 143.1875 150.144531 L 157.136719 157.25 C 157.617188 157.496094 158.191406 157.472656 158.648438 157.191406 C 159.109375 156.90625 159.386719 156.40625 159.386719 155.863281 L 159.386719 138.757812 C 159.386719 138.195312 159.082031 137.675781 158.589844 137.398438 L 144.640625 129.625 C 144.160156 129.359375 143.574219 129.363281 143.101562 129.644531 Z M 156.289062 139.675781 L 156.289062 153.332031 L 145.4375 147.800781 L 145.4375 133.628906 Z M 156.289062 139.675781 " fill-opacity="1" fill-rule="evenodd"/></g></svg>